<?xml version="1.0" encoding="UTF-8"?>
<svg id="Layer_1" xmlns="http://www.w3.org/2000/svg" viewBox="0 0 2559.81 658.81">
  <defs>
    <style>
      .cls-1 {
        fill: #468dcb;
      }
    </style>
  </defs>
  <path class="cls-1" d="M2073.87,657.74c-.05-1.83-.13-3.66-.13-5.49,0-161.24-.01-322.47.01-483.71,0-7.59-.89-6.52,6.71-6.52,95.46,0,190.93-.28,286.39.19,37.41.18,73.81,6.77,107.58,23.86,46.27,23.42,74.45,60.48,83.22,111.86.74,4.32.48,8.81,2.16,12.98v31.99c-2.09,5.62-1.86,11.62-2.86,17.43-7.65,44.31-29.11,79.91-66.65,105.13-35.32,23.73-75.19,33.26-117.04,34.19-44.79.99-89.63.38-134.44.24-4.66-.01-6.13.89-6.11,5.89.19,50.63.09,101.27.07,151.91-52.97.02-105.93.04-158.9.06ZM2233.75,331.77c0,19.48.14,38.96-.11,58.44-.05,4.31,1.31,5.19,5.35,5.16,25.31-.18,50.63-.01,75.94-.13,7.64-.04,15.31-.14,22.9-1.37,23.91-3.88,42.91-14.34,50.7-38.92,4.57-14.4,4.6-29.19.8-43.82-4.38-16.87-14.81-28.65-30.89-35.48-10.24-4.35-21.01-6.51-32-6.63-29.47-.31-58.95-.07-88.43-.24-3.63-.02-4.37,1.17-4.34,4.54.15,19.48.07,38.96.07,58.44Z"/>
  <path class="cls-1" d="M159.2,0c0,50.65.1,101.3-.14,151.95-.02,5.26,1.53,6.13,6.34,6.11,42.16-.19,84.33-.38,126.49-.02,31.47.27,62.29,5.03,91.58,17.05,54.36,22.31,88.08,61.93,99.5,119.95,1.3,6.59,1.2,13.4,3.21,19.86v31.99c-1.92,3.1-1.31,6.72-1.78,10.05-6.45,45.5-28.82,80.91-67.41,105.75-36.63,23.58-77.7,32.66-120.51,32.95-96.79.65-193.58.18-290.37.39C.8,496.05,0,494.45,0,489.67.12,328.11.1,166.55.11,4.99c0-1.66.07-3.33.1-4.99h158.99ZM160.04,384.94c-.02,3.39.82,4.62,4.4,4.57,30.65-.39,61.33,1.01,91.93-.79,23.39-1.38,44.41-8.58,55.56-31.6,7.43-15.34,7.82-31.74,4.4-48.28-3.99-19.29-15.39-32.38-33.51-39.71-9.97-4.03-20.49-5.99-31.14-6.09-29.15-.29-58.31-.06-87.46-.19-3.26-.01-4.21.9-4.18,4.17.14,19.65.07,39.31.07,58.96,0,19.65.07,39.31-.07,58.96Z"/>
  <path class="cls-1" d="M1188.87,657.71l.04,1.1h-158.99c.02-.37.04-.75.06-1.12,52.96,0,105.92.01,158.88.02Z"/>
  <path class="cls-1" d="M2232.77,657.68c.02.37.04.75.06,1.12h-158.99c.01-.35.02-.71.03-1.06,52.96-.02,105.93-.04,158.9-.06Z"/>
  <path class="cls-1" d="M1188.87,657.71c-52.96,0-105.92-.01-158.88-.02-.02-32.31-.06-64.63-.06-96.94,0-130.92.02-261.85-.11-392.77,0-4.62.83-6.11,5.85-6.1,95.63.19,191.26-.13,286.89.33,37.22.18,73.44,6.59,107.17,23.43,43.66,21.79,72.79,55.64,82.34,103.95,9.73,49.21,3.06,96.07-26.28,138.03-20.47,29.28-49.15,47.69-82.52,59.17-28.75,9.88-58.5,13.41-88.81,13.26-39.32-.19-78.64-.07-117.96-.03-8.7,0-7.52-1.05-7.53,7.29-.07,50.14-.08,100.27-.11,150.41ZM1189.91,331.91c0,19.49.11,38.99-.09,58.48-.04,3.97,1.12,5.01,5,4.98,25.66-.16,51.32-.02,76.99-.12,9.32-.04,18.64-.38,27.82-2.37,22.64-4.91,39.4-16.7,45.82-39.97,3.68-13.35,3.65-26.96.48-40.49-3.85-16.42-13.34-28.3-28.6-35.6-11.16-5.34-23.07-7.68-35.26-7.8-29.16-.3-58.32-.06-87.48-.23-3.65-.02-4.79.8-4.75,4.64.21,19.49.1,38.98.1,58.48Z"/>
  <path class="cls-1" d="M1789.94,144.28c46.61.31,89.16,6.33,129.22,24.68,40.52,18.55,71.71,46.76,89.27,88.47,12.13,28.81,15.27,59,12.77,89.95-2.07,25.7-8.95,49.94-21.86,72.33-18.42,31.94-45.41,54.42-78.38,70.08-29.9,14.2-61.63,21.4-94.49,24.38-39.29,3.57-78.12,1.24-116.42-8.32-29.14-7.27-56.3-19-80.31-37.31-34.3-26.17-55.43-60.55-62.84-103.05-6.44-36.95-4.18-73.3,10.42-108.2,16.87-40.33,46.84-68.03,85.74-86.69,27.53-13.21,56.73-20.35,86.99-23.81,14.26-1.63,28.56-2.01,39.88-2.51ZM1717.88,327.72c-.47,9.88.83,20.25,3.05,30.52,7.09,32.75,27.45,53.19,59.19,57.78,35.83,5.18,67.29-10.61,79.74-47.62,6.93-20.63,7.37-41.78,4.62-63.09-1.22-9.4-3.76-18.54-7.83-27.16-11.44-24.16-30.96-36.69-57.25-38.78-32.32-2.57-62.13,9.84-75.11,45.56-4.93,13.56-6.8,27.7-6.41,42.79Z"/>
  <rect class="cls-1" x="601.98" y="262.85" width="315.69" height="126.82"/>
</svg>